<mxfile host="app.diagrams.net" modified="2024-03-12T10:42:17.237Z" agent="Mozilla/5.0 (Windows NT 10.0; Win64; x64) AppleWebKit/537.36 (KHTML, like Gecko) Chrome/122.0.0.0 Safari/537.36 Edg/122.0.0.0" etag="pE4up8UUL1-QKrm_1MGK" version="24.0.5" type="device">
  <diagram name="Seite-1" id="FrTqXm3zJf6_WEg6t4EW">
    <mxGraphModel dx="1002" dy="543" grid="1" gridSize="10" guides="1" tooltips="1" connect="1" arrows="1" fold="1" page="1" pageScale="1" pageWidth="1169" pageHeight="827" math="0" shadow="0">
      <root>
        <mxCell id="0" />
        <mxCell id="1" parent="0" />
        <mxCell id="VvhJY1_OxOB_mA8sxZLI-1" value="" style="ellipse;html=1;shape=startState;fillColor=#000000;strokeColor=#000000;" parent="1" vertex="1">
          <mxGeometry x="699.37" y="10" width="30" height="32" as="geometry" />
        </mxCell>
        <mxCell id="VvhJY1_OxOB_mA8sxZLI-2" value="" style="edgeStyle=orthogonalEdgeStyle;html=1;verticalAlign=bottom;endArrow=open;endSize=8;strokeColor=#000000;rounded=0;entryX=0.5;entryY=0;entryDx=0;entryDy=0;" parent="1" source="VvhJY1_OxOB_mA8sxZLI-1" target="VvhJY1_OxOB_mA8sxZLI-18" edge="1">
          <mxGeometry relative="1" as="geometry">
            <mxPoint x="676" y="120" as="targetPoint" />
          </mxGeometry>
        </mxCell>
        <mxCell id="gctvUmtje5doJeerFHjB-11" style="edgeStyle=orthogonalEdgeStyle;rounded=0;orthogonalLoop=1;jettySize=auto;html=1;exitX=0.5;exitY=1;exitDx=0;exitDy=0;entryX=0.5;entryY=0;entryDx=0;entryDy=0;" parent="1" source="VvhJY1_OxOB_mA8sxZLI-3" target="VvhJY1_OxOB_mA8sxZLI-13" edge="1">
          <mxGeometry relative="1" as="geometry" />
        </mxCell>
        <mxCell id="VvhJY1_OxOB_mA8sxZLI-3" value="Darstellung von Dashboard mit allen bisherigen Daten" style="rounded=1;whiteSpace=wrap;html=1;" parent="1" vertex="1">
          <mxGeometry x="579.37" y="155" width="120" height="60" as="geometry" />
        </mxCell>
        <mxCell id="gctvUmtje5doJeerFHjB-17" style="edgeStyle=orthogonalEdgeStyle;rounded=0;orthogonalLoop=1;jettySize=auto;html=1;exitX=0.5;exitY=1;exitDx=0;exitDy=0;" parent="1" source="VvhJY1_OxOB_mA8sxZLI-13" target="gctvUmtje5doJeerFHjB-16" edge="1">
          <mxGeometry relative="1" as="geometry" />
        </mxCell>
        <mxCell id="rvMvETnAXYuxbqTLXMCK-1" style="edgeStyle=orthogonalEdgeStyle;rounded=0;orthogonalLoop=1;jettySize=auto;html=1;exitX=0;exitY=0.5;exitDx=0;exitDy=0;entryX=0;entryY=0.5;entryDx=0;entryDy=0;" edge="1" parent="1" source="VvhJY1_OxOB_mA8sxZLI-13" target="VvhJY1_OxOB_mA8sxZLI-3">
          <mxGeometry relative="1" as="geometry" />
        </mxCell>
        <mxCell id="VvhJY1_OxOB_mA8sxZLI-13" value="" style="rhombus;whiteSpace=wrap;html=1;" parent="1" vertex="1">
          <mxGeometry x="624.37" y="255" width="31.25" height="30" as="geometry" />
        </mxCell>
        <mxCell id="VvhJY1_OxOB_mA8sxZLI-16" value="[Fütterung eintragen]" style="text;html=1;align=center;verticalAlign=middle;resizable=0;points=[];autosize=1;strokeColor=none;fillColor=none;" parent="1" vertex="1">
          <mxGeometry x="656.87" y="255" width="130" height="30" as="geometry" />
        </mxCell>
        <mxCell id="VvhJY1_OxOB_mA8sxZLI-17" value="Start" style="text;html=1;align=center;verticalAlign=middle;resizable=0;points=[];autosize=1;strokeColor=none;fillColor=none;" parent="1" vertex="1">
          <mxGeometry x="725" y="12" width="50" height="30" as="geometry" />
        </mxCell>
        <mxCell id="VvhJY1_OxOB_mA8sxZLI-21" style="edgeStyle=orthogonalEdgeStyle;rounded=0;orthogonalLoop=1;jettySize=auto;html=1;exitX=0;exitY=0.5;exitDx=0;exitDy=0;entryX=1;entryY=0.5;entryDx=0;entryDy=0;" parent="1" source="VvhJY1_OxOB_mA8sxZLI-18" target="VvhJY1_OxOB_mA8sxZLI-20" edge="1">
          <mxGeometry relative="1" as="geometry" />
        </mxCell>
        <mxCell id="gctvUmtje5doJeerFHjB-32" style="edgeStyle=orthogonalEdgeStyle;rounded=0;orthogonalLoop=1;jettySize=auto;html=1;exitX=0.5;exitY=1;exitDx=0;exitDy=0;entryX=0.5;entryY=0;entryDx=0;entryDy=0;" parent="1" source="VvhJY1_OxOB_mA8sxZLI-18" target="VvhJY1_OxOB_mA8sxZLI-3" edge="1">
          <mxGeometry relative="1" as="geometry" />
        </mxCell>
        <mxCell id="VvhJY1_OxOB_mA8sxZLI-18" value="" style="rhombus;whiteSpace=wrap;html=1;" parent="1" vertex="1">
          <mxGeometry x="621.87" y="85" width="35" height="30" as="geometry" />
        </mxCell>
        <mxCell id="VvhJY1_OxOB_mA8sxZLI-28" style="edgeStyle=orthogonalEdgeStyle;rounded=0;orthogonalLoop=1;jettySize=auto;html=1;exitX=0;exitY=0.5;exitDx=0;exitDy=0;" parent="1" source="VvhJY1_OxOB_mA8sxZLI-20" target="VvhJY1_OxOB_mA8sxZLI-29" edge="1">
          <mxGeometry relative="1" as="geometry">
            <mxPoint x="330" y="125.33333333333337" as="targetPoint" />
          </mxGeometry>
        </mxCell>
        <mxCell id="VvhJY1_OxOB_mA8sxZLI-20" value="Weiterleitung auf die Subpage Gewichtseintragung" style="rounded=1;whiteSpace=wrap;html=1;" parent="1" vertex="1">
          <mxGeometry x="424.37" y="70" width="120" height="60" as="geometry" />
        </mxCell>
        <mxCell id="VvhJY1_OxOB_mA8sxZLI-22" value="[Klick auf &lt;br&gt;Gewichtseintragung Tab]" style="text;html=1;align=center;verticalAlign=middle;resizable=0;points=[];autosize=1;strokeColor=none;fillColor=none;" parent="1" vertex="1">
          <mxGeometry x="474.37" y="20" width="160" height="40" as="geometry" />
        </mxCell>
        <mxCell id="VvhJY1_OxOB_mA8sxZLI-23" value="" style="ellipse;html=1;shape=endState;fillColor=#000000;strokeColor=#000000;" parent="1" vertex="1">
          <mxGeometry x="621.37" y="530" width="30" height="30" as="geometry" />
        </mxCell>
        <mxCell id="VvhJY1_OxOB_mA8sxZLI-27" value="Anpassung von Tortendiagramm mit neuer Verteilung von bisheriger und offener Futtermenge" style="rounded=1;whiteSpace=wrap;html=1;" parent="1" vertex="1">
          <mxGeometry x="644.37" y="400" width="120" height="70" as="geometry" />
        </mxCell>
        <mxCell id="gctvUmtje5doJeerFHjB-3" style="edgeStyle=orthogonalEdgeStyle;rounded=0;orthogonalLoop=1;jettySize=auto;html=1;exitX=0.5;exitY=1;exitDx=0;exitDy=0;entryX=0.5;entryY=0;entryDx=0;entryDy=0;" parent="1" source="VvhJY1_OxOB_mA8sxZLI-29" target="gctvUmtje5doJeerFHjB-2" edge="1">
          <mxGeometry relative="1" as="geometry" />
        </mxCell>
        <mxCell id="VvhJY1_OxOB_mA8sxZLI-29" value="Gewichtshistorie dargestellt" style="rounded=1;whiteSpace=wrap;html=1;" parent="1" vertex="1">
          <mxGeometry x="194.37" y="70.00333333333337" width="120" height="60" as="geometry" />
        </mxCell>
        <mxCell id="VvhJY1_OxOB_mA8sxZLI-33" value="[else]" style="text;html=1;align=center;verticalAlign=middle;resizable=0;points=[];autosize=1;strokeColor=none;fillColor=none;" parent="1" vertex="1">
          <mxGeometry x="649.37" y="110" width="50" height="30" as="geometry" />
        </mxCell>
        <mxCell id="gctvUmtje5doJeerFHjB-30" style="edgeStyle=orthogonalEdgeStyle;rounded=0;orthogonalLoop=1;jettySize=auto;html=1;exitX=0.5;exitY=1;exitDx=0;exitDy=0;entryX=0.5;entryY=1;entryDx=0;entryDy=0;" parent="1" source="VvhJY1_OxOB_mA8sxZLI-38" target="VvhJY1_OxOB_mA8sxZLI-23" edge="1">
          <mxGeometry relative="1" as="geometry" />
        </mxCell>
        <mxCell id="VvhJY1_OxOB_mA8sxZLI-38" value="Neues Gewicht in Gewichtshistorie" style="rounded=1;whiteSpace=wrap;html=1;" parent="1" vertex="1">
          <mxGeometry x="39.99999999999999" y="115" width="120" height="60" as="geometry" />
        </mxCell>
        <mxCell id="VvhJY1_OxOB_mA8sxZLI-64" value="ad: Dashboard und Gewichtseintragung" style="shape=umlFrame;whiteSpace=wrap;html=1;pointerEvents=0;width=130;height=30;" parent="1" vertex="1">
          <mxGeometry x="20" y="10" width="910" height="580" as="geometry" />
        </mxCell>
        <mxCell id="gctvUmtje5doJeerFHjB-1" value="[Klick auf &lt;br&gt;Gewichtseintragung]" style="text;html=1;align=center;verticalAlign=middle;resizable=0;points=[];autosize=1;strokeColor=none;fillColor=none;" parent="1" vertex="1">
          <mxGeometry x="110" y="190" width="130" height="40" as="geometry" />
        </mxCell>
        <mxCell id="gctvUmtje5doJeerFHjB-5" style="edgeStyle=orthogonalEdgeStyle;rounded=0;orthogonalLoop=1;jettySize=auto;html=1;exitX=0;exitY=0.5;exitDx=0;exitDy=0;entryX=1;entryY=0.5;entryDx=0;entryDy=0;" parent="1" source="gctvUmtje5doJeerFHjB-2" target="VvhJY1_OxOB_mA8sxZLI-38" edge="1">
          <mxGeometry relative="1" as="geometry" />
        </mxCell>
        <mxCell id="gctvUmtje5doJeerFHjB-8" style="edgeStyle=orthogonalEdgeStyle;rounded=0;orthogonalLoop=1;jettySize=auto;html=1;exitX=0.5;exitY=1;exitDx=0;exitDy=0;entryX=0;entryY=0.5;entryDx=0;entryDy=0;" parent="1" source="gctvUmtje5doJeerFHjB-2" target="VvhJY1_OxOB_mA8sxZLI-23" edge="1">
          <mxGeometry relative="1" as="geometry" />
        </mxCell>
        <mxCell id="gctvUmtje5doJeerFHjB-2" value="" style="rhombus;whiteSpace=wrap;html=1;" parent="1" vertex="1">
          <mxGeometry x="229.37" y="175" width="35" height="30" as="geometry" />
        </mxCell>
        <mxCell id="gctvUmtje5doJeerFHjB-6" value="[else]" style="text;html=1;align=center;verticalAlign=middle;resizable=0;points=[];autosize=1;strokeColor=none;fillColor=none;" parent="1" vertex="1">
          <mxGeometry x="250" y="215" width="50" height="30" as="geometry" />
        </mxCell>
        <mxCell id="gctvUmtje5doJeerFHjB-13" value="Berechnung von bisheriger und offener Futtermenge und Futterbeutelkapazität" style="rounded=1;whiteSpace=wrap;html=1;" parent="1" vertex="1">
          <mxGeometry x="514.37" y="400" width="120" height="60" as="geometry" />
        </mxCell>
        <mxCell id="gctvUmtje5doJeerFHjB-26" style="edgeStyle=orthogonalEdgeStyle;rounded=0;orthogonalLoop=1;jettySize=auto;html=1;exitX=0;exitY=0.5;exitDx=0;exitDy=0;exitPerimeter=0;entryX=0.5;entryY=0;entryDx=0;entryDy=0;" parent="1" source="gctvUmtje5doJeerFHjB-16" target="gctvUmtje5doJeerFHjB-19" edge="1">
          <mxGeometry relative="1" as="geometry" />
        </mxCell>
        <mxCell id="gctvUmtje5doJeerFHjB-27" style="edgeStyle=orthogonalEdgeStyle;rounded=0;orthogonalLoop=1;jettySize=auto;html=1;exitX=0.25;exitY=0.5;exitDx=0;exitDy=0;exitPerimeter=0;entryX=0.5;entryY=0;entryDx=0;entryDy=0;" parent="1" source="gctvUmtje5doJeerFHjB-16" target="gctvUmtje5doJeerFHjB-13" edge="1">
          <mxGeometry relative="1" as="geometry" />
        </mxCell>
        <mxCell id="gctvUmtje5doJeerFHjB-28" style="edgeStyle=orthogonalEdgeStyle;rounded=0;orthogonalLoop=1;jettySize=auto;html=1;exitX=0.75;exitY=0.5;exitDx=0;exitDy=0;exitPerimeter=0;entryX=0.5;entryY=0;entryDx=0;entryDy=0;" parent="1" source="gctvUmtje5doJeerFHjB-16" target="VvhJY1_OxOB_mA8sxZLI-27" edge="1">
          <mxGeometry relative="1" as="geometry" />
        </mxCell>
        <mxCell id="gctvUmtje5doJeerFHjB-29" style="edgeStyle=orthogonalEdgeStyle;rounded=0;orthogonalLoop=1;jettySize=auto;html=1;exitX=1;exitY=0.5;exitDx=0;exitDy=0;exitPerimeter=0;entryX=0.5;entryY=0;entryDx=0;entryDy=0;" parent="1" source="gctvUmtje5doJeerFHjB-16" target="gctvUmtje5doJeerFHjB-18" edge="1">
          <mxGeometry relative="1" as="geometry" />
        </mxCell>
        <mxCell id="gctvUmtje5doJeerFHjB-16" value="" style="line;strokeWidth=2;html=1;" parent="1" vertex="1">
          <mxGeometry x="384.37" y="340" width="510" height="10" as="geometry" />
        </mxCell>
        <mxCell id="gctvUmtje5doJeerFHjB-18" value="Eintragung in heutige Fütterungen" style="rounded=1;whiteSpace=wrap;html=1;" parent="1" vertex="1">
          <mxGeometry x="774.37" y="400" width="120" height="60" as="geometry" />
        </mxCell>
        <mxCell id="gctvUmtje5doJeerFHjB-19" value="Eintragen von&amp;nbsp; Fütterung in Liniendigramm" style="rounded=1;whiteSpace=wrap;html=1;" parent="1" vertex="1">
          <mxGeometry x="384.37" y="400" width="120" height="60" as="geometry" />
        </mxCell>
        <mxCell id="gctvUmtje5doJeerFHjB-34" value="" style="edgeStyle=orthogonalEdgeStyle;rounded=0;orthogonalLoop=1;jettySize=auto;html=1;" parent="1" source="gctvUmtje5doJeerFHjB-20" target="VvhJY1_OxOB_mA8sxZLI-23" edge="1">
          <mxGeometry relative="1" as="geometry" />
        </mxCell>
        <mxCell id="gctvUmtje5doJeerFHjB-20" value="" style="line;strokeWidth=2;html=1;" parent="1" vertex="1">
          <mxGeometry x="381.37" y="500" width="510" height="10" as="geometry" />
        </mxCell>
        <mxCell id="gctvUmtje5doJeerFHjB-21" style="edgeStyle=orthogonalEdgeStyle;rounded=0;orthogonalLoop=1;jettySize=auto;html=1;exitX=0.5;exitY=1;exitDx=0;exitDy=0;entryX=0.116;entryY=0.5;entryDx=0;entryDy=0;entryPerimeter=0;" parent="1" source="gctvUmtje5doJeerFHjB-19" target="gctvUmtje5doJeerFHjB-20" edge="1">
          <mxGeometry relative="1" as="geometry" />
        </mxCell>
        <mxCell id="gctvUmtje5doJeerFHjB-22" style="edgeStyle=orthogonalEdgeStyle;rounded=0;orthogonalLoop=1;jettySize=auto;html=1;exitX=0.5;exitY=1;exitDx=0;exitDy=0;entryX=0.378;entryY=0.4;entryDx=0;entryDy=0;entryPerimeter=0;" parent="1" source="gctvUmtje5doJeerFHjB-13" target="gctvUmtje5doJeerFHjB-20" edge="1">
          <mxGeometry relative="1" as="geometry" />
        </mxCell>
        <mxCell id="gctvUmtje5doJeerFHjB-23" style="edgeStyle=orthogonalEdgeStyle;rounded=0;orthogonalLoop=1;jettySize=auto;html=1;exitX=0.5;exitY=1;exitDx=0;exitDy=0;entryX=0.627;entryY=0.5;entryDx=0;entryDy=0;entryPerimeter=0;" parent="1" source="VvhJY1_OxOB_mA8sxZLI-27" target="gctvUmtje5doJeerFHjB-20" edge="1">
          <mxGeometry relative="1" as="geometry" />
        </mxCell>
        <mxCell id="gctvUmtje5doJeerFHjB-24" style="edgeStyle=orthogonalEdgeStyle;rounded=0;orthogonalLoop=1;jettySize=auto;html=1;exitX=0.5;exitY=1;exitDx=0;exitDy=0;entryX=0.892;entryY=0.3;entryDx=0;entryDy=0;entryPerimeter=0;" parent="1" source="gctvUmtje5doJeerFHjB-18" target="gctvUmtje5doJeerFHjB-20" edge="1">
          <mxGeometry relative="1" as="geometry" />
        </mxCell>
        <mxCell id="rvMvETnAXYuxbqTLXMCK-2" value="[else]" style="text;html=1;align=center;verticalAlign=middle;resizable=0;points=[];autosize=1;strokeColor=none;fillColor=none;" vertex="1" parent="1">
          <mxGeometry x="571.87" y="240" width="50" height="30" as="geometry" />
        </mxCell>
      </root>
    </mxGraphModel>
  </diagram>
</mxfile>
